<mxfile host="Electron" agent="Mozilla/5.0 (Macintosh; Intel Mac OS X 10_15_7) AppleWebKit/537.36 (KHTML, like Gecko) draw.io/25.0.2 Chrome/128.0.6613.186 Electron/32.2.5 Safari/537.36" version="25.0.2">
  <diagram name="Page-1" id="_gRGWOFDqU3hSQWJzQTY">
    <mxGraphModel dx="2543" dy="1688" grid="1" gridSize="10" guides="1" tooltips="1" connect="1" arrows="1" fold="1" page="1" pageScale="1" pageWidth="850" pageHeight="1100" background="none" math="1" shadow="0">
      <root>
        <mxCell id="0" />
        <mxCell id="1" parent="0" />
        <mxCell id="U2g8rZyLT_9OAayW0UQs-4" value="" style="endArrow=classic;html=1;rounded=0;strokeWidth=2;fontFamily=Segoe UI;" parent="1" edge="1">
          <mxGeometry width="50" height="50" relative="1" as="geometry">
            <mxPoint x="-700" y="-620" as="sourcePoint" />
            <mxPoint x="-80" y="-620" as="targetPoint" />
          </mxGeometry>
        </mxCell>
        <mxCell id="U2g8rZyLT_9OAayW0UQs-55" style="edgeStyle=orthogonalEdgeStyle;rounded=0;orthogonalLoop=1;jettySize=auto;html=1;entryX=0.5;entryY=1;entryDx=0;entryDy=0;endArrow=oval;endFill=1;fontFamily=Segoe UI;" parent="1" source="U2g8rZyLT_9OAayW0UQs-2" target="U2g8rZyLT_9OAayW0UQs-34" edge="1">
          <mxGeometry relative="1" as="geometry" />
        </mxCell>
        <mxCell id="U2g8rZyLT_9OAayW0UQs-2" value="2023" style="ellipse;whiteSpace=wrap;html=1;fontStyle=1;fontFamily=Segoe UI;" parent="1" vertex="1">
          <mxGeometry x="-280.75" y="-641" width="41" height="41" as="geometry" />
        </mxCell>
        <mxCell id="U2g8rZyLT_9OAayW0UQs-43" style="edgeStyle=orthogonalEdgeStyle;rounded=0;orthogonalLoop=1;jettySize=auto;html=1;entryX=0.5;entryY=1;entryDx=0;entryDy=0;endArrow=oval;endFill=1;fontFamily=Segoe UI;" parent="1" source="U2g8rZyLT_9OAayW0UQs-3" target="U2g8rZyLT_9OAayW0UQs-6" edge="1">
          <mxGeometry relative="1" as="geometry" />
        </mxCell>
        <mxCell id="U2g8rZyLT_9OAayW0UQs-3" value="2001" style="ellipse;whiteSpace=wrap;html=1;fontStyle=1;fontFamily=Segoe UI;" parent="1" vertex="1">
          <mxGeometry x="-681" y="-640" width="40" height="40" as="geometry" />
        </mxCell>
        <mxCell id="U2g8rZyLT_9OAayW0UQs-6" value="【SIGGRAPH 2001】BEAT" style="text;html=1;align=center;verticalAlign=middle;whiteSpace=wrap;rounded=0;fontFamily=Segoe UI;" parent="1" vertex="1">
          <mxGeometry x="-716" y="-700" width="110" height="40" as="geometry" />
        </mxCell>
        <mxCell id="U2g8rZyLT_9OAayW0UQs-45" style="edgeStyle=orthogonalEdgeStyle;rounded=0;orthogonalLoop=1;jettySize=auto;html=1;entryX=0.5;entryY=1;entryDx=0;entryDy=0;endArrow=oval;endFill=1;fontFamily=Segoe UI;" parent="1" source="U2g8rZyLT_9OAayW0UQs-12" edge="1">
          <mxGeometry relative="1" as="geometry">
            <mxPoint x="-560" y="-661" as="targetPoint" />
          </mxGeometry>
        </mxCell>
        <mxCell id="U2g8rZyLT_9OAayW0UQs-12" value="2012" style="ellipse;whiteSpace=wrap;html=1;fontStyle=1;fontFamily=Segoe UI;" parent="1" vertex="1">
          <mxGeometry x="-580" y="-640" width="40" height="40" as="geometry" />
        </mxCell>
        <mxCell id="U2g8rZyLT_9OAayW0UQs-18" value="【ICCV 2021】&lt;div&gt;Audio2Gestures&lt;/div&gt;&lt;div&gt;&lt;span style=&quot;box-sizing: border-box; font-weight: var(--base-text-weight-semibold, 600); color: rgb(31, 35, 40); font-size: 16px; text-align: left; background-color: rgb(255, 255, 255);&quot;&gt;VAEs&lt;/span&gt;&lt;br&gt;&lt;/div&gt;" style="text;html=1;align=center;verticalAlign=middle;whiteSpace=wrap;rounded=0;fontFamily=Segoe UI;" parent="1" vertex="1">
          <mxGeometry x="-490" y="-720" width="100" height="60" as="geometry" />
        </mxCell>
        <mxCell id="U2g8rZyLT_9OAayW0UQs-19" value="2021" style="ellipse;whiteSpace=wrap;html=1;fontStyle=1;fontFamily=Segoe UI;" parent="1" vertex="1">
          <mxGeometry x="-460" y="-640" width="40" height="40" as="geometry" />
        </mxCell>
        <mxCell id="U2g8rZyLT_9OAayW0UQs-21" value="" style="verticalLabelPosition=bottom;shadow=0;dashed=0;align=center;html=1;verticalAlign=top;strokeWidth=1;shape=mxgraph.mockup.markup.curlyBrace;whiteSpace=wrap;strokeColor=#999999;rotation=-180;fontFamily=Segoe UI;" parent="1" vertex="1">
          <mxGeometry x="-520" y="-600" width="190" height="11" as="geometry" />
        </mxCell>
        <mxCell id="U2g8rZyLT_9OAayW0UQs-48" style="edgeStyle=orthogonalEdgeStyle;rounded=0;orthogonalLoop=1;jettySize=auto;html=1;entryX=0.5;entryY=1;entryDx=0;entryDy=0;endArrow=oval;endFill=1;fontFamily=Segoe UI;" parent="1" source="U2g8rZyLT_9OAayW0UQs-23" edge="1">
          <mxGeometry relative="1" as="geometry">
            <mxPoint x="-360.75" y="-660" as="targetPoint" />
          </mxGeometry>
        </mxCell>
        <mxCell id="U2g8rZyLT_9OAayW0UQs-23" value="2022" style="ellipse;whiteSpace=wrap;html=1;fontStyle=1;fontFamily=Segoe UI;" parent="1" vertex="1">
          <mxGeometry x="-380.75" y="-640" width="40" height="40" as="geometry" />
        </mxCell>
        <mxCell id="k_VJ4PJ7efvfxE2TK4_w-27" style="edgeStyle=orthogonalEdgeStyle;rounded=0;orthogonalLoop=1;jettySize=auto;html=1;entryX=0.5;entryY=1;entryDx=0;entryDy=0;endArrow=oval;endFill=1;" parent="1" source="U2g8rZyLT_9OAayW0UQs-28" target="k_VJ4PJ7efvfxE2TK4_w-7" edge="1">
          <mxGeometry relative="1" as="geometry" />
        </mxCell>
        <mxCell id="U2g8rZyLT_9OAayW0UQs-28" value="2023" style="ellipse;whiteSpace=wrap;html=1;fontStyle=1;fontFamily=Segoe UI;" parent="1" vertex="1">
          <mxGeometry x="-160" y="-640" width="40" height="40" as="geometry" />
        </mxCell>
        <mxCell id="U2g8rZyLT_9OAayW0UQs-30" value="" style="verticalLabelPosition=bottom;shadow=0;dashed=0;align=center;html=1;verticalAlign=top;strokeWidth=1;shape=mxgraph.mockup.markup.curlyBrace;whiteSpace=wrap;strokeColor=#999999;rotation=-180;fontFamily=Segoe UI;" parent="1" vertex="1">
          <mxGeometry x="-280.5" y="-600" width="160" height="11" as="geometry" />
        </mxCell>
        <mxCell id="k_VJ4PJ7efvfxE2TK4_w-29" style="edgeStyle=orthogonalEdgeStyle;rounded=0;orthogonalLoop=1;jettySize=auto;html=1;entryX=0.5;entryY=1;entryDx=0;entryDy=0;strokeColor=#FF0000;" parent="1" source="U2g8rZyLT_9OAayW0UQs-33" target="k_VJ4PJ7efvfxE2TK4_w-25" edge="1">
          <mxGeometry relative="1" as="geometry" />
        </mxCell>
        <mxCell id="U2g8rZyLT_9OAayW0UQs-33" value="【IJCAI 2023】DiffuseStyleGesture&lt;div&gt;&lt;span style=&quot;color: rgb(31, 35, 40); font-size: 16px; font-weight: 600; text-align: left; background-color: rgb(255, 255, 255);&quot;&gt;Diffusion&lt;/span&gt;&lt;br&gt;&lt;/div&gt;" style="text;html=1;align=center;verticalAlign=middle;whiteSpace=wrap;rounded=0;fontFamily=Segoe UI;" parent="1" vertex="1">
          <mxGeometry x="-195.12" y="-795" width="110.25" height="55" as="geometry" />
        </mxCell>
        <mxCell id="U2g8rZyLT_9OAayW0UQs-56" style="edgeStyle=orthogonalEdgeStyle;rounded=0;orthogonalLoop=1;jettySize=auto;html=1;entryX=0.5;entryY=1;entryDx=0;entryDy=0;endArrow=oval;endFill=1;fontFamily=Segoe UI;" parent="1" source="U2g8rZyLT_9OAayW0UQs-34" target="U2g8rZyLT_9OAayW0UQs-36" edge="1">
          <mxGeometry relative="1" as="geometry" />
        </mxCell>
        <mxCell id="U2g8rZyLT_9OAayW0UQs-34" value="&lt;div&gt;【SIGGRAPH 2023】 Listen, denoise, action!&lt;div&gt;&lt;span style=&quot;box-sizing: border-box; font-weight: var(--base-text-weight-semibold, 600); color: rgb(31, 35, 40); font-size: 16px; text-align: left; background-color: rgb(255, 255, 255);&quot;&gt;Diffusion&lt;/span&gt;&lt;/div&gt;&lt;/div&gt;" style="text;html=1;align=center;verticalAlign=middle;whiteSpace=wrap;rounded=0;fontFamily=Segoe UI;" parent="1" vertex="1">
          <mxGeometry x="-325" y="-720" width="130" height="60.5" as="geometry" />
        </mxCell>
        <mxCell id="U2g8rZyLT_9OAayW0UQs-36" value="&lt;div&gt;【CVPR 2023】Taming Diffusion&lt;br&gt;&lt;/div&gt;&lt;div&gt;&lt;span style=&quot;color: rgb(31, 35, 40); font-size: 16px; font-weight: 600; text-align: left; background-color: rgb(255, 255, 255);&quot;&gt;Diffusion&lt;/span&gt;&lt;br&gt;&lt;/div&gt;" style="text;html=1;align=center;verticalAlign=middle;whiteSpace=wrap;rounded=0;fontFamily=Segoe UI;" parent="1" vertex="1">
          <mxGeometry x="-310" y="-800" width="100" height="60" as="geometry" />
        </mxCell>
        <mxCell id="U2g8rZyLT_9OAayW0UQs-37" value="【ICMI 2020】Gesticulator Gesticulator&lt;div&gt;&lt;span style=&quot;box-sizing: border-box; font-weight: var(--base-text-weight-semibold, 600); color: rgb(31, 35, 40); font-size: 16px; text-align: left; background-color: rgb(255, 255, 255);&quot;&gt;MLP&lt;/span&gt;&lt;br&gt;&lt;/div&gt;" style="text;html=1;align=center;verticalAlign=middle;whiteSpace=wrap;rounded=0;fontFamily=Segoe UI;" parent="1" vertex="1">
          <mxGeometry x="-543" y="-780" width="85" height="70" as="geometry" />
        </mxCell>
        <mxCell id="U2g8rZyLT_9OAayW0UQs-50" style="edgeStyle=orthogonalEdgeStyle;rounded=0;orthogonalLoop=1;jettySize=auto;html=1;endArrow=oval;endFill=1;fontFamily=Segoe UI;" parent="1" source="U2g8rZyLT_9OAayW0UQs-49" target="U2g8rZyLT_9OAayW0UQs-37" edge="1">
          <mxGeometry relative="1" as="geometry" />
        </mxCell>
        <mxCell id="U2g8rZyLT_9OAayW0UQs-49" value="2020" style="ellipse;whiteSpace=wrap;html=1;fontStyle=1;fontFamily=Segoe UI;" parent="1" vertex="1">
          <mxGeometry x="-520.5" y="-640" width="40" height="40" as="geometry" />
        </mxCell>
        <mxCell id="U2g8rZyLT_9OAayW0UQs-54" style="edgeStyle=orthogonalEdgeStyle;rounded=0;orthogonalLoop=1;jettySize=auto;html=1;entryX=0.5;entryY=1;entryDx=0;entryDy=0;endArrow=oval;endFill=1;fontFamily=Segoe UI;exitX=0.5;exitY=0;exitDx=0;exitDy=0;" parent="1" source="U2g8rZyLT_9OAayW0UQs-19" target="U2g8rZyLT_9OAayW0UQs-18" edge="1">
          <mxGeometry relative="1" as="geometry">
            <mxPoint x="-420" y="-645" as="sourcePoint" />
          </mxGeometry>
        </mxCell>
        <mxCell id="U2g8rZyLT_9OAayW0UQs-61" value="" style="verticalLabelPosition=bottom;shadow=0;dashed=0;align=center;html=1;verticalAlign=top;strokeWidth=1;shape=mxgraph.mockup.markup.curlyBrace;whiteSpace=wrap;strokeColor=#999999;rotation=-180;fontFamily=Segoe UI;" parent="1" vertex="1">
          <mxGeometry x="-521" y="-561" width="400" height="11" as="geometry" />
        </mxCell>
        <mxCell id="U2g8rZyLT_9OAayW0UQs-62" value="Mô hình sinh ngầm định" style="text;html=1;align=center;verticalAlign=middle;whiteSpace=wrap;rounded=0;fontStyle=1;fontFamily=Segoe UI;" parent="1" vertex="1">
          <mxGeometry x="-280" y="-591" width="160" height="30" as="geometry" />
        </mxCell>
        <mxCell id="U2g8rZyLT_9OAayW0UQs-63" value="Dựa trên Likelihood" style="text;html=1;align=center;verticalAlign=middle;whiteSpace=wrap;rounded=0;fontStyle=1;fontFamily=Segoe UI;" parent="1" vertex="1">
          <mxGeometry x="-520" y="-591" width="190" height="30" as="geometry" />
        </mxCell>
        <mxCell id="U2g8rZyLT_9OAayW0UQs-64" value="Deep Learning" style="text;html=1;align=center;verticalAlign=middle;whiteSpace=wrap;rounded=0;fontStyle=1;fontFamily=Segoe UI;" parent="1" vertex="1">
          <mxGeometry x="-400.75" y="-550" width="175.75" height="30" as="geometry" />
        </mxCell>
        <mxCell id="X5PdJxpPrzvB6jkNwqAI-1" value="" style="endArrow=classic;html=1;rounded=0;strokeWidth=2;fontFamily=Segoe UI;" parent="1" edge="1">
          <mxGeometry width="50" height="50" relative="1" as="geometry">
            <mxPoint x="-720" y="-360" as="sourcePoint" />
            <mxPoint x="-50" y="-360" as="targetPoint" />
          </mxGeometry>
        </mxCell>
        <mxCell id="X5PdJxpPrzvB6jkNwqAI-5" value="&lt;div&gt;&lt;b&gt;Diffusion Cơ Bản&lt;/b&gt;&lt;/div&gt;&lt;div&gt;【NeurIPS 2020】&lt;br&gt;&lt;/div&gt;" style="text;html=1;align=center;verticalAlign=middle;whiteSpace=wrap;rounded=0;fontFamily=Segoe UI;fontStyle=0" parent="1" vertex="1">
          <mxGeometry x="-740" y="-420" width="120" height="40" as="geometry" />
        </mxCell>
        <mxCell id="cqq5YQWZgSziT4_dvvgo-6" style="edgeStyle=orthogonalEdgeStyle;rounded=0;orthogonalLoop=1;jettySize=auto;html=1;entryX=0.5;entryY=1;entryDx=0;entryDy=0;endArrow=none;endFill=0;" edge="1" parent="1" source="X5PdJxpPrzvB6jkNwqAI-7" target="X5PdJxpPrzvB6jkNwqAI-5">
          <mxGeometry relative="1" as="geometry" />
        </mxCell>
        <mxCell id="X5PdJxpPrzvB6jkNwqAI-7" value="" style="ellipse;whiteSpace=wrap;html=1;fontStyle=1;fontFamily=Segoe UI;fillColor=#000000;" parent="1" vertex="1">
          <mxGeometry x="-685" y="-365" width="10" height="10" as="geometry" />
        </mxCell>
        <mxCell id="X5PdJxpPrzvB6jkNwqAI-10" value="&lt;b style=&quot;font-size: 12px;&quot;&gt;Diffusion Cải Tiến&lt;/b&gt;&lt;div&gt;&lt;span style=&quot;font-size: 12px;&quot;&gt;【OpenAI】&lt;/span&gt;&lt;b style=&quot;font-size: 12px;&quot;&gt;&lt;br&gt;&lt;/b&gt;&lt;/div&gt;" style="text;html=1;align=center;verticalAlign=middle;whiteSpace=wrap;rounded=0;fontFamily=Segoe UI;fontStyle=0;fontSize=10;" parent="1" vertex="1">
          <mxGeometry x="-620" y="-420" width="120" height="40" as="geometry" />
        </mxCell>
        <mxCell id="X5PdJxpPrzvB6jkNwqAI-11" value="&lt;div&gt;&lt;b&gt;Diffusion Có Điều Kiện&lt;/b&gt;&lt;br&gt;&lt;/div&gt;&lt;div&gt;&lt;span style=&quot;font-weight: 400; background-color: initial;&quot;&gt;【&lt;/span&gt;&lt;span style=&quot;font-weight: normal;&quot;&gt;OpenAI&lt;/span&gt;&lt;span style=&quot;font-weight: 400; background-color: initial;&quot;&gt;】&lt;/span&gt;&lt;/div&gt;" style="text;html=1;align=center;verticalAlign=middle;whiteSpace=wrap;rounded=0;fontFamily=Segoe UI;fontStyle=1" parent="1" vertex="1">
          <mxGeometry x="-505.25" y="-420" width="130.5" height="40" as="geometry" />
        </mxCell>
        <mxCell id="X5PdJxpPrzvB6jkNwqAI-13" value="&lt;b&gt;DiffuseStyleGesture&lt;/b&gt;&lt;div&gt;【IJCAI 2023】&lt;b&gt;&lt;br&gt;&lt;/b&gt;&lt;/div&gt;" style="text;html=1;align=center;verticalAlign=middle;whiteSpace=wrap;rounded=0;fontFamily=Segoe UI;" parent="1" vertex="1">
          <mxGeometry x="-240" y="-420" width="120" height="40" as="geometry" />
        </mxCell>
        <mxCell id="X5PdJxpPrzvB6jkNwqAI-15" value="&lt;div&gt;MDM&lt;span style=&quot;font-weight: 400;&quot;&gt;: Human Motion Diffusion Model&lt;/span&gt;&lt;br&gt;&lt;/div&gt;&lt;div&gt;&lt;span style=&quot;font-weight: 400; background-color: initial;&quot;&gt;【&lt;/span&gt;&lt;span style=&quot;font-weight: normal;&quot;&gt;ICLR2023&lt;/span&gt;&lt;span style=&quot;font-weight: 400; background-color: initial;&quot;&gt;】&lt;/span&gt;&lt;/div&gt;" style="text;html=1;align=center;verticalAlign=middle;whiteSpace=wrap;rounded=0;fontFamily=Segoe UI;fontStyle=1" parent="1" vertex="1">
          <mxGeometry x="-375.5" y="-420" width="131" height="40" as="geometry" />
        </mxCell>
        <mxCell id="X5PdJxpPrzvB6jkNwqAI-22" value="&lt;b&gt;OHGesture&lt;/b&gt;" style="text;html=1;align=center;verticalAlign=middle;whiteSpace=wrap;rounded=0;fontFamily=Segoe UI;strokeColor=none;" parent="1" vertex="1">
          <mxGeometry x="-125" y="-420" width="70" height="40" as="geometry" />
        </mxCell>
        <mxCell id="k_VJ4PJ7efvfxE2TK4_w-28" style="edgeStyle=orthogonalEdgeStyle;rounded=0;orthogonalLoop=1;jettySize=auto;html=1;entryX=0.5;entryY=1;entryDx=0;entryDy=0;endArrow=oval;endFill=1;" parent="1" source="k_VJ4PJ7efvfxE2TK4_w-7" target="U2g8rZyLT_9OAayW0UQs-33" edge="1">
          <mxGeometry relative="1" as="geometry" />
        </mxCell>
        <mxCell id="k_VJ4PJ7efvfxE2TK4_w-7" value="【ICLR 2023】MDM&lt;div&gt;&lt;span style=&quot;font-size: 16px; font-weight: 600; text-align: left; background-color: rgb(255, 255, 255);&quot;&gt;Diffusion&lt;/span&gt;&lt;br&gt;&lt;/div&gt;" style="text;html=1;align=center;verticalAlign=middle;whiteSpace=wrap;rounded=0;fontFamily=Segoe UI;fontColor=default;" parent="1" vertex="1">
          <mxGeometry x="-190.12" y="-720" width="100" height="60" as="geometry" />
        </mxCell>
        <mxCell id="k_VJ4PJ7efvfxE2TK4_w-20" value="" style="verticalLabelPosition=bottom;shadow=0;dashed=0;align=center;html=1;verticalAlign=top;strokeWidth=1;shape=mxgraph.mockup.markup.curlyBrace;whiteSpace=wrap;strokeColor=#999999;rotation=-180;fontFamily=Segoe UI;" parent="1" vertex="1">
          <mxGeometry x="-680" y="-600" width="140" height="11" as="geometry" />
        </mxCell>
        <mxCell id="k_VJ4PJ7efvfxE2TK4_w-21" value="Dựa trên luật" style="text;html=1;align=center;verticalAlign=middle;whiteSpace=wrap;rounded=0;fontFamily=Segoe UI;fontStyle=1" parent="1" vertex="1">
          <mxGeometry x="-660.5" y="-591" width="90.5" height="30" as="geometry" />
        </mxCell>
        <mxCell id="k_VJ4PJ7efvfxE2TK4_w-25" value="&lt;div&gt;&lt;b&gt;O&lt;/b&gt;pen&lt;b&gt;H&lt;/b&gt;uman &lt;b&gt;Gesture&lt;/b&gt; Generation&lt;br&gt;&lt;/div&gt;&lt;div&gt;&lt;span style=&quot;color: rgb(31, 35, 40); font-size: 16px; font-weight: 600; text-align: left; background-color: rgb(255, 255, 255);&quot;&gt;OHGesture&lt;/span&gt;&lt;br&gt;&lt;/div&gt;" style="text;html=1;align=center;verticalAlign=middle;whiteSpace=wrap;rounded=0;fontFamily=Segoe UI;strokeColor=none;spacing=0;" parent="1" vertex="1">
          <mxGeometry x="-190.12" y="-885" width="100" height="70" as="geometry" />
        </mxCell>
        <mxCell id="k_VJ4PJ7efvfxE2TK4_w-30" value="&lt;div&gt;&lt;br&gt;&lt;/div&gt;" style="text;html=1;align=center;verticalAlign=middle;whiteSpace=wrap;rounded=0;fontFamily=Segoe UI;strokeColor=#FF0000;spacing=0;" parent="1" vertex="1">
          <mxGeometry x="-140" y="-977.5" width="100" height="70" as="geometry" />
        </mxCell>
        <mxCell id="k_VJ4PJ7efvfxE2TK4_w-35" value="【HRI 2012】Robot Behavior Toolkit" style="text;html=1;align=center;verticalAlign=middle;whiteSpace=wrap;rounded=0;fontFamily=Segoe UI;" parent="1" vertex="1">
          <mxGeometry x="-610.5" y="-711" width="101" height="50" as="geometry" />
        </mxCell>
        <mxCell id="k_VJ4PJ7efvfxE2TK4_w-36" value="&lt;span style=&quot;color: rgb(31, 35, 40); text-align: left; background-color: rgb(255, 255, 255);&quot;&gt;&lt;font style=&quot;font-size: 12px;&quot;&gt;【CVPR 2022】&lt;/font&gt;&lt;/span&gt;&lt;font color=&quot;#1f2328&quot;&gt;HA2G&lt;/font&gt;&lt;div&gt;&lt;span style=&quot;box-sizing: border-box; font-weight: var(--base-text-weight-semibold, 600); color: rgb(31, 35, 40); font-size: 16px; text-align: left; background-color: rgb(255, 255, 255);&quot;&gt;RNN&lt;/span&gt;&lt;font color=&quot;#1f2328&quot;&gt;&lt;br&gt;&lt;/font&gt;&lt;/div&gt;" style="text;html=1;align=center;verticalAlign=middle;whiteSpace=wrap;rounded=0;fontFamily=Segoe UI;" parent="1" vertex="1">
          <mxGeometry x="-400.75" y="-720" width="80" height="60" as="geometry" />
        </mxCell>
        <mxCell id="k_VJ4PJ7efvfxE2TK4_w-41" value="【HRI 2012】Robot Behavior Toolkit" style="text;html=1;align=center;verticalAlign=middle;whiteSpace=wrap;rounded=0;fontFamily=Segoe UI;" parent="1" vertex="1">
          <mxGeometry x="-670" y="-975" width="101" height="50" as="geometry" />
        </mxCell>
        <mxCell id="k_VJ4PJ7efvfxE2TK4_w-42" value="" style="verticalLabelPosition=bottom;shadow=0;dashed=0;align=center;html=1;verticalAlign=top;strokeWidth=1;shape=mxgraph.mockup.markup.curlyBrace;whiteSpace=wrap;strokeColor=#999999;rotation=-180;fontFamily=Segoe UI;" parent="1" vertex="1">
          <mxGeometry x="-660.5" y="-931" width="80.5" height="11" as="geometry" />
        </mxCell>
        <mxCell id="k_VJ4PJ7efvfxE2TK4_w-43" value="Dựa trên luật" style="text;html=1;align=center;verticalAlign=middle;whiteSpace=wrap;rounded=0;fontFamily=Segoe UI;fontStyle=1" parent="1" vertex="1">
          <mxGeometry x="-660" y="-920" width="79.5" height="20" as="geometry" />
        </mxCell>
        <mxCell id="k_VJ4PJ7efvfxE2TK4_w-46" value="&lt;span style=&quot;color: rgb(31, 35, 40); text-align: left; background-color: rgb(255, 255, 255);&quot;&gt;&lt;font style=&quot;font-size: 12px;&quot;&gt;【CVPR 2022】&lt;/font&gt;&lt;/span&gt;&lt;font color=&quot;#1f2328&quot;&gt;HA2G&lt;/font&gt;&lt;div&gt;&lt;span style=&quot;box-sizing: border-box; font-weight: var(--base-text-weight-semibold, 600); color: rgb(31, 35, 40); font-size: 16px; text-align: left; background-color: rgb(255, 255, 255);&quot;&gt;RNN&lt;/span&gt;&lt;font color=&quot;#1f2328&quot;&gt;&lt;br&gt;&lt;/font&gt;&lt;/div&gt;" style="text;html=1;align=center;verticalAlign=middle;whiteSpace=wrap;rounded=0;fontFamily=Segoe UI;" parent="1" vertex="1">
          <mxGeometry x="-520" y="-980" width="80" height="60" as="geometry" />
        </mxCell>
        <mxCell id="k_VJ4PJ7efvfxE2TK4_w-47" value="Dựa trên Likelihood" style="text;html=1;align=center;verticalAlign=middle;whiteSpace=wrap;rounded=0;fontStyle=1;fontFamily=Segoe UI;" parent="1" vertex="1">
          <mxGeometry x="-520" y="-920" width="80" height="30" as="geometry" />
        </mxCell>
        <mxCell id="k_VJ4PJ7efvfxE2TK4_w-48" value="" style="verticalLabelPosition=bottom;shadow=0;dashed=0;align=center;html=1;verticalAlign=top;strokeWidth=1;shape=mxgraph.mockup.markup.curlyBrace;whiteSpace=wrap;strokeColor=#999999;rotation=-180;fontFamily=Segoe UI;" parent="1" vertex="1">
          <mxGeometry x="-520" y="-930" width="80" height="11" as="geometry" />
        </mxCell>
        <mxCell id="k_VJ4PJ7efvfxE2TK4_w-50" value="【IJCAI 2023】DiffuseStyleGesture&lt;div&gt;&lt;span style=&quot;color: rgb(31, 35, 40); font-size: 16px; font-weight: 600; text-align: left; background-color: rgb(255, 255, 255);&quot;&gt;Diffusion&lt;/span&gt;&lt;br&gt;&lt;/div&gt;" style="text;html=1;align=center;verticalAlign=middle;whiteSpace=wrap;rounded=0;fontFamily=Segoe UI;" parent="1" vertex="1">
          <mxGeometry x="-399.75" y="-980" width="109.75" height="55" as="geometry" />
        </mxCell>
        <mxCell id="k_VJ4PJ7efvfxE2TK4_w-51" value="" style="verticalLabelPosition=bottom;shadow=0;dashed=0;align=center;html=1;verticalAlign=top;strokeWidth=1;shape=mxgraph.mockup.markup.curlyBrace;whiteSpace=wrap;strokeColor=#999999;rotation=-180;fontFamily=Segoe UI;" parent="1" vertex="1">
          <mxGeometry x="-400.75" y="-931" width="109.25" height="10" as="geometry" />
        </mxCell>
        <mxCell id="k_VJ4PJ7efvfxE2TK4_w-52" value="Mô hình sinh ngầm định" style="text;html=1;align=center;verticalAlign=middle;whiteSpace=wrap;rounded=0;fontStyle=1;fontFamily=Segoe UI;" parent="1" vertex="1">
          <mxGeometry x="-401" y="-920" width="111" height="30" as="geometry" />
        </mxCell>
        <mxCell id="k_VJ4PJ7efvfxE2TK4_w-69" value="$$\rightarrow$$" style="text;html=1;align=center;verticalAlign=middle;whiteSpace=wrap;rounded=0;fontFamily=Segoe UI;spacingTop=-2;fontSize=18;" parent="1" vertex="1">
          <mxGeometry x="-1000" y="-880" width="30" height="20" as="geometry" />
        </mxCell>
        <mxCell id="cqq5YQWZgSziT4_dvvgo-2" value="&lt;div&gt;&lt;span style=&quot;background-color: initial;&quot;&gt;&lt;b&gt;Diffusion Cải Tiến&lt;/b&gt;&lt;/span&gt;&lt;/div&gt;" style="text;html=1;align=center;verticalAlign=middle;whiteSpace=wrap;rounded=0;fontFamily=Segoe UI;fontStyle=0" vertex="1" parent="1">
          <mxGeometry x="-620" y="-510" width="120" height="30" as="geometry" />
        </mxCell>
        <mxCell id="cqq5YQWZgSziT4_dvvgo-9" style="edgeStyle=orthogonalEdgeStyle;rounded=0;orthogonalLoop=1;jettySize=auto;html=1;entryX=0.5;entryY=1;entryDx=0;entryDy=0;endArrow=none;endFill=0;" edge="1" parent="1" source="cqq5YQWZgSziT4_dvvgo-8" target="X5PdJxpPrzvB6jkNwqAI-10">
          <mxGeometry relative="1" as="geometry" />
        </mxCell>
        <mxCell id="cqq5YQWZgSziT4_dvvgo-8" value="" style="ellipse;whiteSpace=wrap;html=1;fontStyle=1;fontFamily=Segoe UI;fillColor=#000000;" vertex="1" parent="1">
          <mxGeometry x="-565" y="-365" width="10" height="10" as="geometry" />
        </mxCell>
        <mxCell id="cqq5YQWZgSziT4_dvvgo-11" style="edgeStyle=orthogonalEdgeStyle;rounded=0;orthogonalLoop=1;jettySize=auto;html=1;entryX=0.5;entryY=1;entryDx=0;entryDy=0;endArrow=none;endFill=0;" edge="1" parent="1" source="cqq5YQWZgSziT4_dvvgo-10" target="X5PdJxpPrzvB6jkNwqAI-11">
          <mxGeometry relative="1" as="geometry" />
        </mxCell>
        <mxCell id="cqq5YQWZgSziT4_dvvgo-10" value="" style="ellipse;whiteSpace=wrap;html=1;fontStyle=1;fontFamily=Segoe UI;fillColor=#000000;" vertex="1" parent="1">
          <mxGeometry x="-445" y="-365" width="10" height="10" as="geometry" />
        </mxCell>
        <mxCell id="cqq5YQWZgSziT4_dvvgo-21" style="edgeStyle=orthogonalEdgeStyle;rounded=0;orthogonalLoop=1;jettySize=auto;html=1;entryX=0.5;entryY=1;entryDx=0;entryDy=0;endArrow=none;endFill=0;" edge="1" parent="1" source="cqq5YQWZgSziT4_dvvgo-12" target="X5PdJxpPrzvB6jkNwqAI-15">
          <mxGeometry relative="1" as="geometry">
            <Array as="points">
              <mxPoint x="-310" y="-370" />
              <mxPoint x="-310" y="-370" />
            </Array>
          </mxGeometry>
        </mxCell>
        <mxCell id="cqq5YQWZgSziT4_dvvgo-12" value="" style="ellipse;whiteSpace=wrap;html=1;fontStyle=1;fontFamily=Segoe UI;fillColor=#000000;" vertex="1" parent="1">
          <mxGeometry x="-315" y="-365" width="10" height="10" as="geometry" />
        </mxCell>
        <mxCell id="cqq5YQWZgSziT4_dvvgo-17" style="edgeStyle=orthogonalEdgeStyle;rounded=0;orthogonalLoop=1;jettySize=auto;html=1;entryX=0.5;entryY=1;entryDx=0;entryDy=0;endArrow=none;endFill=0;" edge="1" parent="1" source="cqq5YQWZgSziT4_dvvgo-15" target="X5PdJxpPrzvB6jkNwqAI-13">
          <mxGeometry relative="1" as="geometry" />
        </mxCell>
        <mxCell id="cqq5YQWZgSziT4_dvvgo-15" value="" style="ellipse;whiteSpace=wrap;html=1;fontStyle=1;fontFamily=Segoe UI;fillColor=#000000;" vertex="1" parent="1">
          <mxGeometry x="-185" y="-365" width="10" height="10" as="geometry" />
        </mxCell>
        <mxCell id="cqq5YQWZgSziT4_dvvgo-19" style="edgeStyle=orthogonalEdgeStyle;rounded=0;orthogonalLoop=1;jettySize=auto;html=1;entryX=0.5;entryY=1;entryDx=0;entryDy=0;endArrow=none;endFill=0;" edge="1" parent="1" source="cqq5YQWZgSziT4_dvvgo-18" target="X5PdJxpPrzvB6jkNwqAI-22">
          <mxGeometry relative="1" as="geometry" />
        </mxCell>
        <mxCell id="cqq5YQWZgSziT4_dvvgo-18" value="" style="ellipse;whiteSpace=wrap;html=1;fontStyle=1;fontFamily=Segoe UI;fillColor=#000000;" vertex="1" parent="1">
          <mxGeometry x="-95" y="-365" width="10" height="10" as="geometry" />
        </mxCell>
      </root>
    </mxGraphModel>
  </diagram>
</mxfile>
